<svg width="102" height="24" viewBox="0 0 102 24" fill="none" xmlns="http://www.w3.org/2000/svg">
<path d="M92.3755 15.7971H86.9738L89.6395 9.58621L92.3755 15.7971ZM95.7167 23.9313H101.624V23.0536L90.9578 0.00335694H88.3589L77.7304 23.0588V23.9365H83.6378L85.0212 20.9656H94.3383L95.7167 23.9313ZM69.3646 5.39992V23.9142H75.3389V5.39992H81.1178V0.00335694H63.5584V5.40507L69.3646 5.39992ZM53.4681 11.2285H49.1481V5.32105C50.5658 5.32105 52.0503 5.28677 53.4681 5.32105C56.9103 5.35534 56.7423 11.2285 53.4681 11.2285ZM58.4635 15.1713C64.4378 11.1205 62.7492 0.0187828 53.4681 -0.0155029H43.1052V23.9228H49.1463V16.5891H52.2852L56.3361 23.9228H63.0869V23.0451L58.4635 15.1713ZM40.4206 0.00335694H25.6778V23.9279H40.7327V18.5605H31.6863V14.4033H39.7195V9.03762H31.6863V5.6965H40.4292L40.4206 0.00335694ZM0.212091 12.1285C0.246376 20.1616 6.36464 23.9759 12.3715 23.9416C17.4012 23.9416 22.6572 21.5416 23.5366 14.8559H17.5949C17.3085 15.9872 16.621 16.9759 15.6601 17.6381C14.6993 18.3003 13.5306 18.5909 12.3715 18.4559C11.5609 18.4504 10.76 18.2798 10.0175 17.9546C9.27509 17.6293 8.60667 17.1562 8.05309 16.5641C7.4995 15.9721 7.07234 15.2734 6.79766 14.5108C6.52299 13.7482 6.4066 12.9376 6.45552 12.1285C6.45552 8.21307 8.78522 5.54562 12.3286 5.54562C13.4572 5.44813 14.585 5.7399 15.5247 6.37239C16.4644 7.00489 17.1593 7.93997 17.4938 9.02219H23.4338C22.5235 2.71019 17.2229 0.0444772 12.3286 0.0444772C10.7239 -0.0161091 9.12388 0.254763 7.62849 0.840149C6.1331 1.42554 4.7744 2.31289 3.63726 3.44681C2.50012 4.58074 1.60895 5.93688 1.01932 7.43061C0.429703 8.92434 0.154325 10.5236 0.210364 12.1285" fill="#214D74"/>
</svg>
